# xmcd
#
# Track frame offsets:
#	150
#	27332
#	41952
#	65617
#
# Disc length: 1170 seconds
#
# Revision: 1
# Processed by: cddbd v1.5.2PL0 Copyright (c) Steve Scherf et al.
# Submitted via: EasyCDDAExtractor 11.0.2.1
#
DISCID=35049004
DTITLE=P.M. Project - Rima Brasileña (1997)
DYEAR=1997
DGENRE=Rap
TTITLE0=Rima Brasileña (Original Mix)
TTITLE1=Rima Brasileña (Radio Edit)
TTITLE2=Rima Brasileña (Xtudio Remix)
TTITLE3=Rima Brasileña (Martin Delgado Remix)
EXTD=YEAR: 1988
EXTT0=
EXTT1=
EXTT2=
EXTT3=
PLAYORDER=
